# xmcd
#
# Track frame offsets:
#	150
#	14968
#	34765
#	53027
#	67042
#	90354
#	104746
#	126678
#	136153
#	153181
#
# Disc length: 2253 seconds
# Revision: 0
# Processed by: cddbd v1.5.2PL0 Copyright (c) Steve Scherf et al.
# Submitted via: dBpowerAMP V12.0
#
DISCID=8d08cb0a
DTITLE=Malcolm Holcombe - another black hole
DYEAR=2016
DGENRE=Roots
TTITLE0=Sweet Georgia
TTITLE1=Another Black Hole
TTITLE2=To Get By
TTITLE3=Heidelberg Blues
TTITLE4=Don't Play Around
TTITLE5=Someone Missing
TTITLE6=Papermill Man
TTITLE7=September
TTITLE8=Leavin' Anna
TTITLE9=Way Behind
EXTD=
EXTT0=
EXTT1=
EXTT2=
EXTT3=
EXTT4=
EXTT5=
EXTT6=
EXTT7=
EXTT8=
EXTT9=
PLAYORDER=
